<svg width="115" height="31" viewBox="0 0 115 31" fill="none" xmlns="http://www.w3.org/2000/svg">
<path d="M14.1758 17.1846C14.1758 19.0889 13.4873 20.583 12.1104 21.667C10.7334 22.751 8.83398 23.293 6.41211 23.293C3.99023 23.293 2.00781 22.917 0.464844 22.165V18.8545C1.44141 19.3135 2.47656 19.6748 3.57031 19.9385C4.67383 20.2021 5.69922 20.334 6.64648 20.334C8.0332 20.334 9.05371 20.0703 9.70801 19.543C10.3721 19.0156 10.7041 18.3076 10.7041 17.4189C10.7041 16.6182 10.4014 15.9395 9.7959 15.3828C9.19043 14.8262 7.94043 14.167 6.0459 13.4053C4.09277 12.6143 2.71582 11.7109 1.91504 10.6953C1.11426 9.67969 0.713867 8.45898 0.713867 7.0332C0.713867 5.24609 1.34863 3.83984 2.61816 2.81445C3.8877 1.78906 5.5918 1.27637 7.73047 1.27637C9.78125 1.27637 11.8223 1.72559 13.8535 2.62402L12.7402 5.48047C10.8359 4.67969 9.13672 4.2793 7.64258 4.2793C6.50977 4.2793 5.65039 4.52832 5.06445 5.02637C4.47852 5.51465 4.18555 6.16406 4.18555 6.97461C4.18555 7.53125 4.30273 8.00977 4.53711 8.41016C4.77148 8.80078 5.15723 9.17188 5.69434 9.52344C6.23145 9.875 7.19824 10.3389 8.59473 10.915C10.167 11.5693 11.3193 12.1797 12.0518 12.7461C12.7842 13.3125 13.3213 13.9521 13.6631 14.665C14.0049 15.3779 14.1758 16.2178 14.1758 17.1846ZM26.1729 23.293C24.1221 23.293 22.5303 22.5557 21.3975 21.0811H21.1924C21.3291 22.4482 21.3975 23.2783 21.3975 23.5713V30.207H17.9551V6.79883H20.7383C20.8164 7.10156 20.9775 7.82422 21.2217 8.9668H21.3975C22.4717 7.32617 24.083 6.50586 26.2314 6.50586C28.2529 6.50586 29.8252 7.23828 30.9482 8.70312C32.0811 10.168 32.6475 12.2236 32.6475 14.8701C32.6475 17.5166 32.0713 19.582 30.9189 21.0664C29.7764 22.5508 28.1943 23.293 26.1729 23.293ZM25.3379 9.31836C23.9707 9.31836 22.9697 9.71875 22.335 10.5195C21.71 11.3203 21.3975 12.5996 21.3975 14.3574V14.8701C21.3975 16.8428 21.71 18.2734 22.335 19.1621C22.96 20.041 23.9805 20.4805 25.3965 20.4805C26.5879 20.4805 27.5059 19.9922 28.1504 19.0156C28.7949 18.0391 29.1172 16.6475 29.1172 14.8408C29.1172 13.0244 28.7949 11.6523 28.1504 10.7246C27.5156 9.78711 26.5781 9.31836 25.3379 9.31836ZM40.0889 23H36.6465V6.79883H40.0889V23ZM36.4414 2.50684C36.4414 1.8916 36.6074 1.41797 36.9395 1.08594C37.2812 0.753906 37.7646 0.587891 38.3896 0.587891C38.9951 0.587891 39.4639 0.753906 39.7959 1.08594C40.1377 1.41797 40.3086 1.8916 40.3086 2.50684C40.3086 3.09277 40.1377 3.55664 39.7959 3.89844C39.4639 4.23047 38.9951 4.39648 38.3896 4.39648C37.7646 4.39648 37.2812 4.23047 36.9395 3.89844C36.6074 3.55664 36.4414 3.09277 36.4414 2.50684ZM51.5586 23.293C49.1074 23.293 47.2422 22.5801 45.9629 21.1543C44.6934 19.7188 44.0586 17.6631 44.0586 14.9873C44.0586 12.2627 44.7227 10.168 46.0508 8.70312C47.3887 7.23828 49.3174 6.50586 51.8369 6.50586C53.5459 6.50586 55.084 6.82324 56.4512 7.45801L55.4111 10.2266C53.9561 9.66016 52.7549 9.37695 51.8076 9.37695C49.0049 9.37695 47.6035 11.2373 47.6035 14.958C47.6035 16.7744 47.9502 18.1416 48.6436 19.0596C49.3467 19.9678 50.3721 20.4219 51.7197 20.4219C53.2529 20.4219 54.7031 20.041 56.0703 19.2793V22.2822C55.4551 22.6436 54.7959 22.9023 54.0928 23.0586C53.3994 23.2148 52.5547 23.293 51.5586 23.293ZM66.9541 23.293C64.4346 23.293 62.4619 22.5605 61.0361 21.0957C59.6201 19.6211 58.9121 17.5947 58.9121 15.0166C58.9121 12.3701 59.5713 10.29 60.8896 8.77637C62.208 7.2627 64.0195 6.50586 66.3242 6.50586C68.4629 6.50586 70.1523 7.15527 71.3926 8.4541C72.6328 9.75293 73.2529 11.54 73.2529 13.8154V15.6758H62.457C62.5059 17.248 62.9307 18.459 63.7314 19.3086C64.5322 20.1484 65.6602 20.5684 67.1152 20.5684C68.0723 20.5684 68.9609 20.4805 69.7812 20.3047C70.6113 20.1191 71.5 19.8164 72.4473 19.3965V22.1943C71.6074 22.5947 70.7578 22.8779 69.8984 23.0439C69.0391 23.21 68.0576 23.293 66.9541 23.293ZM66.3242 9.11328C65.2305 9.11328 64.3516 9.45996 63.6875 10.1533C63.0332 10.8467 62.6426 11.8574 62.5156 13.1855H69.8691C69.8496 11.8477 69.5273 10.8369 68.9023 10.1533C68.2773 9.45996 67.418 9.11328 66.3242 9.11328ZM94.3174 1.58398V15.4414C94.3174 17.0234 93.9756 18.4102 93.292 19.6016C92.6182 20.7832 91.6367 21.6963 90.3477 22.3408C89.0684 22.9756 87.5352 23.293 85.748 23.293C83.0918 23.293 81.0264 22.5898 79.5518 21.1836C78.0771 19.7773 77.3398 17.8438 77.3398 15.3828V1.58398H80.8555V15.1338C80.8555 16.9014 81.2656 18.2051 82.0859 19.0449C82.9062 19.8848 84.166 20.3047 85.8652 20.3047C89.166 20.3047 90.8164 18.5713 90.8164 15.1045V1.58398H94.3174ZM107.647 23.293C105.597 23.293 104.005 22.5557 102.872 21.0811H102.667C102.804 22.4482 102.872 23.2783 102.872 23.5713V30.207H99.4297V6.79883H102.213C102.291 7.10156 102.452 7.82422 102.696 8.9668H102.872C103.946 7.32617 105.558 6.50586 107.706 6.50586C109.728 6.50586 111.3 7.23828 112.423 8.70312C113.556 10.168 114.122 12.2236 114.122 14.8701C114.122 17.5166 113.546 19.582 112.394 21.0664C111.251 22.5508 109.669 23.293 107.647 23.293ZM106.812 9.31836C105.445 9.31836 104.444 9.71875 103.81 10.5195C103.185 11.3203 102.872 12.5996 102.872 14.3574V14.8701C102.872 16.8428 103.185 18.2734 103.81 19.1621C104.435 20.041 105.455 20.4805 106.871 20.4805C108.062 20.4805 108.98 19.9922 109.625 19.0156C110.27 18.0391 110.592 16.6475 110.592 14.8408C110.592 13.0244 110.27 11.6523 109.625 10.7246C108.99 9.78711 108.053 9.31836 106.812 9.31836Z" fill="white"/>
</svg>
